# xmcd
#
# Track frame offsets:
#	150
#	14787
#	30867
#	42637
#	55349
#	68907
#	84784
#	96214
#	109466
#	123841
#	139290
#	155062
#	170457
#	181079
#	195036
#	208305
#	222167
#	235772
#	255926
#	274603
#	284393
#	288350
#	308852
#
# Disc length: 4182 seconds
#
# Revision: 0
# Processed by: cddbd v1.5PL3 Copyright (c) Steve Scherf et al.
# Submitted via: dBpowerAMP V4.0
#
DISCID=4a105417
DTITLE=Mickey Gilley - Mickey Gilley and Joey Riley
DYEAR=2003
DGENRE=Country
TTITLE0=You Don't Know Me
TTITLE1=Talk To Me
TTITLE2=Window Up Above
TTITLE3=City Lights
TTITLE4=I Overlooked An Orchid
TTITLE5=Fool For Your Love
TTITLE6=That's All That Matters
TTITLE7=Object Of My Affections
TTITLE8=Paradise Tonight
TTITLE9=She Reminded Me Of You
TTITLE10=You've Still Got A Way With My Life
TTITLE11=Chasing Rainbows
TTITLE12=There! I Said It Again
TTITLE13=Baby I Feel For You
TTITLE14=Don't All The Girls Get Prettier At Closing Time
TTITLE15=Couldn't Love have Picked A Better Place To Die
TTITLE16=True Love Ways
TTITLE17=Cheese
TTITLE18=Bull Joke
TTITLE19=Sheep Joke
TTITLE20=Hiccups
TTITLE21=Flushers
TTITLE22=Buick
EXTD=
EXTT0=
EXTT1=
EXTT2=
EXTT3=
EXTT4=
EXTT5=
EXTT6=
EXTT7=
EXTT8=
EXTT9=
EXTT10=
EXTT11=
EXTT12=
EXTT13=
EXTT14=
EXTT15=
EXTT16=
EXTT17=
EXTT18=
EXTT19=
EXTT20=
EXTT21=
EXTT22=
PLAYORDER=
